# xmcd
#
# Track frame offsets:
# 150
# 17858
# 33937
# 50178
# 63633
# 79077
# 96416
# 113477
# 129679
# 150760
# 172608
# 188451
# 205732
# 219871
# 239840
# 258362
#
# Disc length: 3705 seconds
#
#
# Revision: 3
# Processed by: cddbd v1.5.2PL0 Copyright (c) Steve Scherf et al.
# Submitted via: FreeRIP 2.951 
#
DISCID=cf0e7710
DTITLE=Bruno and Marrone - Ao Vivo
DYEAR=2004
DGENRE=Sertanejo (BR)
TTITLE0=Inevitável
TTITLE1=Doce Desejo
TTITLE2=Deixa
TTITLE3=Trânsito Parado
TTITLE4=O Amor Esá Aqui
TTITLE5=Apaziguar
TTITLE6=Meu Disfarce
TTITLE7=Te Amar Foi Ilusão
TTITLE8=Será
TTITLE9=Se Tiver Coragem Joga Fora
TTITLE10=Ligação Urbana
TTITLE11=Sonhos Perdidos
TTITLE12=Grito de Alerta
TTITLE13=Se Não Tivesse Ido
TTITLE14=Menina
TTITLE15=Vai Dar Namoro
EXTD=
EXTT0=
EXTT1=
EXTT2=
EXTT3=
EXTT4=
EXTT5=
EXTT6=
EXTT7=
EXTT8=
EXTT9=
EXTT10=
EXTT11=
EXTT12=
EXTT13=
EXTT14=
EXTT15=
PLAYORDER=
